<svg xmlns="http://www.w3.org/2000/svg" width="86" height="59" viewBox="0 0 86 59">
    <g fill="none" fill-rule="evenodd">
        <path fill="#FFFFFE" d="M0.246 57.938L85.354 57.938 85.354 0.127 0.246 0.127z" transform="translate(0 .5)"/>
        <path fill="#174489" d="M1.882 56.27L83.717 56.27 83.717 1.712 1.882 1.712z" transform="translate(0 .5)"/>
        <path fill="#FFF101" d="M41.056 13.599L42.783 12.339 44.51 13.599 43.852 11.562 45.607 10.301 43.444 10.301 42.783 8.239 42.121 10.303 39.96 10.301 41.713 11.562zM32.12 16L33.846 14.74 35.572 16 34.916 13.962 36.669 12.702 34.507 12.702 33.845 10.637 33.184 12.704 31.023 12.702 32.776 13.962zM27.308 17.191L26.646 19.258 24.485 19.255 26.238 20.516 25.581 22.554 27.308 21.294 29.035 22.554 28.377 20.516 30.13 19.255 27.969 19.255zM24.909 30.218L26.635 31.479 25.979 29.441 27.732 28.181 25.571 28.181 24.909 26.115 24.248 28.185 22.086 28.181 23.84 29.441 23.182 31.479zM27.969 37.133L27.308 35.068 26.646 37.135 24.485 37.133 26.238 38.393 25.581 40.431 27.308 39.168 29.035 40.431 28.377 38.393 30.13 37.133zM34.521 43.684L33.859 41.621 33.198 43.686 31.037 43.684 32.789 44.944 32.133 46.982 33.86 45.722 35.586 46.982 34.93 44.944 36.682 43.684zM43.446 46.058L42.784 43.993 42.123 46.06 39.962 46.058 41.714 47.318 41.058 49.356 42.785 48.095 44.511 49.356 43.854 47.318 45.607 46.058zM52.371 43.684L51.71 41.621 51.047 43.686 48.888 43.684 50.639 44.944 49.983 46.982 51.71 45.722 53.437 46.982 52.779 44.944 54.532 43.684zM58.924 37.133L58.261 35.068 57.598 37.135 55.439 37.133 57.193 38.393 56.534 40.431 58.261 39.168 59.988 40.431 59.33 38.393 61.084 37.133zM63.458 28.156L61.296 28.156 60.633 26.091 59.972 28.158 57.81 28.156 59.564 29.416 58.908 31.454 60.633 30.192 62.36 31.454 61.704 29.416zM56.534 22.527L58.261 21.266 59.988 22.527 59.33 20.489 61.084 19.231 58.924 19.231 58.261 17.166 57.599 19.233 55.439 19.231 57.193 20.489zM51.735 10.639L51.074 12.707 48.912 12.702 50.664 13.964 50.008 16.003 51.737 14.74 53.462 16.003 52.806 13.964 54.56 12.702 52.395 12.702z" transform="translate(0 .5)"/>
    </g>
</svg>
