<svg xmlns="http://www.w3.org/2000/svg" xmlns:xlink="http://www.w3.org/1999/xlink" width="150" height="43" viewBox="0 0 150 43">
    <defs>
        <linearGradient id="prefix__a" x1="81.488%" x2="11.842%" y1="33.165%" y2="66.823%">
            <stop offset="0%" stop-color="#FFB400"/>
            <stop offset="100%" stop-color="#CD135F"/>
        </linearGradient>
        <path id="prefix__b" d="M103.744 26.011V24.59h-4.05v-7.452h-1.498v8.874h5.548zm8.024 0v-1.409h-4.888v-2.374h4.253v-1.333h-4.253v-2.349h4.735v-1.409h-6.233v8.874h6.386zm4.862 0c1.71 0 2.98-.402 3.808-1.206.83-.804 1.245-1.896 1.245-3.275 0-1.38-.428-2.457-1.283-3.231-.854-.775-2.077-1.162-3.669-1.162h-3.046v8.874h2.945zm.216-1.409h-1.663v-6.081h1.498c2.327 0 3.49 1.016 3.49 3.047 0 .999-.285 1.754-.856 2.266s-1.394.768-2.47.768zm10.816 1.51c1.557 0 2.755-.46 3.593-1.383v-3.034h-1.498v2.437c-.567.364-1.272.546-2.114.546-.842 0-1.56-.285-2.152-.857-.592-.571-.888-1.328-.888-2.272 0-.944.304-1.706.914-2.285.609-.58 1.362-.87 2.26-.87.465 0 .873.057 1.224.171.352.115.7.32 1.048.616l.8-1.142c-.847-.745-1.909-1.118-3.187-1.118-1.278 0-2.368.44-3.269 1.32-.901.88-1.352 1.981-1.352 3.301s.442 2.413 1.327 3.276c.884.863 1.982 1.295 3.294 1.295zm11.946-.1v-1.41h-4.887v-2.374h4.253v-1.333h-4.253v-2.349h4.735v-1.409h-6.233v8.874h6.385zm3.415 0v-2.984h1.968l2.12 2.983h1.904l-2.323-3.224c1.278-.381 1.917-1.304 1.917-2.768 0-1.007-.292-1.74-.876-2.196-.584-.457-1.553-.686-2.907-.686h-3.3v8.874h1.497zm1.867-4.343h-1.867v-3.173h1.905c.804 0 1.362.108 1.675.323.314.216.47.614.47 1.194s-.152 1-.457 1.263c-.305.262-.88.393-1.726.393z"/>
    </defs>
    <g fill="none" transform="translate(.36)">
        <path fill="url(#prefix__a)" d="M85.41 20.133l-3.9-3.87c-.62-.616-.968-1.453-.967-2.327V4.83c-.02-2.604-2.126-4.71-4.73-4.73H4.863C2.25.115.138 2.237.133 4.85v33.334c.022 2.614 2.142 4.723 4.756 4.73h70.95c2.613-.007 4.733-2.117 4.752-4.73v-7.869c0-.871.347-1.706.963-2.322l3.861-3.913c.523-.524.816-1.234.816-1.975 0-.74-.296-1.45-.82-1.972z"/>
        <path fill="#FFF" d="M69.66 7.792c.841 0 1.648.334 2.242.93.595.595.928 1.402.927 2.243v21.07c-.002 1.749-1.42 3.165-3.169 3.165-.841 0-1.648-.332-2.244-.927-.595-.594-.93-1.401-.93-2.242V10.96c0-.842.335-1.648.93-2.243.596-.594 1.403-.928 2.244-.926zM59.392 21.07H55.9c-1.699-.02-3.126 1.27-3.277 2.963-.057.875.251 1.735.85 2.375.6.64 1.438 1.004 2.315 1.005.158 0 .307.074.402.202.094.127.122.291.076.443-.288.914-1.025 1.617-1.953 1.861-.928.24-1.883.359-2.842.353-1.604.028-3.189-.357-4.601-1.118-1.32-.723-2.412-1.802-3.152-3.113-.775-1.386-1.171-2.953-1.148-4.541-.03-1.6.36-3.18 1.135-4.58.739-1.315 1.84-2.39 3.174-3.096 1.437-.75 3.04-1.127 4.66-1.096 1.926-.026 3.812.546 5.397 1.638 1.009.704 2.356.674 3.333-.073.702-.545 1.102-1.392 1.075-2.28-.026-.889-.475-1.711-1.209-2.213-.746-.497-1.54-.919-2.369-1.26-2.08-.838-4.306-1.256-6.549-1.23-2.69-.04-5.349.585-7.74 1.819-2.237 1.15-4.108 2.903-5.4 5.061-1.307 2.212-1.977 4.742-1.935 7.31-.041 2.568.628 5.098 1.934 7.31 1.287 2.14 3.14 3.885 5.354 5.04 2.362 1.244 4.998 1.876 7.667 1.84 2.006-.003 4-.308 5.917-.903h.056c3.056-.963 5.129-3.805 5.112-7.009v-3.87c.013-.748-.275-1.47-.8-2.004s-1.242-.834-1.99-.834zM32.93 10.922v21.147c0 1.73-1.401 3.133-3.131 3.135h-.598c-.938-.001-1.826-.422-2.42-1.148L16.36 21.371c-.342-.437-.927-.606-1.45-.418-.523.187-.867.688-.854 1.244v9.89c-.003 1.73-1.405 3.132-3.135 3.134-1.73-.002-3.13-1.405-3.13-3.134V10.922c0-1.729 1.401-3.13 3.13-3.13h.632c.94 0 1.83.422 2.425 1.148l10.376 12.672c.343.436.926.605 1.448.419.523-.186.868-.686.857-1.24V10.9c0-1.73 1.402-3.13 3.13-3.13.836-.003 1.638.329 2.227.92.59.592.918 1.396.912 2.231z"/>
        <use fill="#000" xlink:href="#prefix__b"/>
        <use fill="#7399A6" xlink:href="#prefix__b"/>
    </g>
</svg>
