<svg xmlns="http://www.w3.org/2000/svg" xmlns:xlink="http://www.w3.org/1999/xlink" width="14" height="14" viewBox="0 0 14 14">
    <defs>
        <path id="prefix__a" d="M7 .583v3.192C5.219 3.775 3.775 5.219 3.775 7c0 1.781 1.444 3.225 3.225 3.225.99 0 1.876-.446 2.467-1.148l2.442 2.055c-1.177 1.397-2.94 2.285-4.909 2.285C3.456 13.417.583 10.544.583 7 .583 3.456 3.456.583 7 .583zm3.027 7.533l2.995 1.104c-.13.352-.29.69-.478 1.011L9.787 8.624c.094-.161.174-.331.24-.508zm3.293-2.23c.063.362.097.734.097 1.114h-3.192c0-.191-.017-.378-.049-.56zm-2.175-3.784c.285.241.548.507.787.794L9.48 4.937c-.12-.144-.253-.278-.396-.399z"/>
    </defs>
    <g fill="none" fill-rule="evenodd">
        <path d="M0 0L14 0 14 14 0 14z"/>
        <use fill="#ACACAC" xlink:href="#prefix__a"/>
        <path fill="#FFF" fill-opacity=".01" d="M0 0H1V1H0zM13.417 13.417H14.417V14.417H13.417z"/>
    </g>
</svg>
